<svg width="150" height="48" viewBox="0 0 150 48" fill="none" xmlns="http://www.w3.org/2000/svg">
<path d="M26.2214 21.3757C26.2947 21.4689 26.3788 21.5531 26.4721 21.6264C27.6797 22.5753 29.3585 21.2947 28.7625 19.8792L25.8375 12.9322C25.4634 12.0439 25.6645 11.0175 26.346 10.336L29.1302 7.55176C30.056 6.62598 31.557 6.62598 32.4828 7.55176L39.1422 14.2112C39.9715 15.0405 40.0697 16.3516 39.3732 17.2953L35.8014 22.1345C34.0257 24.5402 34.4832 27.9214 36.8342 29.7688L39.8807 32.1626C40.9982 33.0407 41.0973 34.698 40.0923 35.7029L35.4897 40.3055C34.4847 41.3105 32.8275 41.2114 31.9494 40.094L21.4112 26.6828C21.3392 26.5912 21.2566 26.5085 21.1649 26.4366C19.9786 25.5045 18.3295 26.7625 18.915 28.153L21.8414 35.1033C22.2155 35.9916 22.0144 37.018 21.3329 37.6995L18.5836 40.4488C17.6578 41.3746 16.1568 41.3746 15.231 40.4488L8.57088 33.7886C7.74188 32.9596 7.64336 31.6492 8.3391 30.7055L11.8529 25.9398C13.6267 23.534 13.1685 20.1542 10.8181 18.3076L7.76352 15.9078C6.64592 15.0297 6.5468 13.3724 7.5518 12.3674L12.1541 7.76502C13.1591 6.76002 14.8165 6.85914 15.6945 7.97675L26.2214 21.3757Z" fill="white"/>
<path d="M134.144 35.4306C132.586 35.4306 131.179 35.0735 129.921 34.3592C128.663 33.6252 127.664 32.6232 126.926 31.3535C126.187 30.0837 125.817 28.6453 125.817 27.0383C125.817 25.4313 126.177 24.0028 126.896 22.7529C127.634 21.503 128.633 20.511 129.891 19.7769C131.149 19.0428 132.566 18.6758 134.144 18.6758C135.701 18.6758 137.109 19.0428 138.367 19.7769C139.625 20.4911 140.613 21.4732 141.332 22.7231C142.071 23.973 142.44 25.4114 142.44 27.0383C142.44 28.6652 142.061 30.1135 141.302 31.3833C140.543 32.6332 139.535 33.6252 138.277 34.3592C137.039 35.0735 135.661 35.4306 134.144 35.4306ZM134.144 32.7522C135.142 32.7522 136.041 32.5042 136.839 32.0082C137.658 31.5122 138.297 30.8277 138.756 29.9548C139.235 29.0818 139.475 28.1097 139.475 27.0383C139.475 25.9471 139.235 24.9849 138.756 24.1516C138.297 23.2985 137.658 22.6239 136.839 22.1279C136.041 21.6121 135.142 21.3542 134.144 21.3542C133.125 21.3542 132.207 21.6121 131.388 22.1279C130.59 22.6239 129.951 23.2985 129.471 24.1516C128.992 24.9849 128.753 25.9471 128.753 27.0383C128.753 28.1097 128.992 29.0818 129.471 29.9548C129.951 30.8277 130.59 31.5122 131.388 32.0082C132.207 32.5042 133.125 32.7522 134.144 32.7522Z" fill="white"/>
<path d="M110.579 35.0985V21.7066H107.494V19.058H110.579V17.9271C110.579 16.7764 110.829 15.8042 111.328 15.0106C111.847 14.217 112.526 13.6119 113.365 13.1953C114.223 12.7786 115.172 12.5703 116.21 12.5703C116.43 12.5703 116.669 12.5902 116.929 12.6298C117.208 12.6497 117.438 12.6794 117.618 12.7191V15.1892C117.458 15.1495 117.268 15.1297 117.049 15.1297C116.829 15.1098 116.659 15.0999 116.539 15.0999C115.621 15.0999 114.862 15.3181 114.263 15.7546C113.684 16.1911 113.394 16.9153 113.394 17.9271V19.058H121.781V21.7066H113.394V35.0985H110.579ZM120.762 35.0985V12.5703H123.578V35.0985H120.762Z" fill="white"/>
<path d="M98.1233 35.4306C96.5658 35.4306 95.1581 35.0735 93.9002 34.3592C92.6422 33.6252 91.6439 32.6232 90.9051 31.3535C90.1663 30.0837 89.7969 28.6453 89.7969 27.0383C89.7969 25.4313 90.1563 24.0028 90.8751 22.7529C91.6139 21.503 92.6123 20.511 93.8702 19.7769C95.1282 19.0428 96.5458 18.6758 98.1233 18.6758C99.6807 18.6758 101.088 19.0428 102.346 19.7769C103.604 20.4911 104.593 21.4732 105.312 22.7231C106.05 23.973 106.42 25.4114 106.42 27.0383C106.42 28.6652 106.04 30.1135 105.282 31.3833C104.523 32.6332 103.514 33.6252 102.257 34.3592C101.019 35.0735 99.6408 35.4306 98.1233 35.4306ZM98.1233 32.7522C99.1216 32.7522 100.02 32.5042 100.819 32.0082C101.638 31.5122 102.276 30.8277 102.736 29.9548C103.215 29.0818 103.455 28.1097 103.455 27.0383C103.455 25.9471 103.215 24.9849 102.736 24.1516C102.276 23.2985 101.638 22.6239 100.819 22.1279C100.02 21.6121 99.1216 21.3542 98.1233 21.3542C97.1049 21.3542 96.1864 21.6121 95.3678 22.1279C94.5691 22.6239 93.9301 23.2985 93.4509 24.1516C92.9717 24.9849 92.7321 25.9471 92.7321 27.0383C92.7321 28.1097 92.9717 29.0818 93.4509 29.9548C93.9301 30.8277 94.5691 31.5122 95.3678 32.0082C96.1864 32.5042 97.1049 32.7522 98.1233 32.7522Z" fill="white"/>
<path d="M80.5194 35.4306C78.9619 35.4306 77.5742 35.0636 76.3562 34.3295C75.1382 33.5954 74.1798 32.5935 73.4809 31.3237C72.782 30.0341 72.4326 28.5957 72.4326 27.0086C72.4326 25.4015 72.7721 23.973 73.451 22.7231C74.1498 21.4732 75.0883 20.4911 76.2663 19.7769C77.4644 19.0428 78.8022 18.6758 80.2798 18.6758C81.4778 18.6758 82.5361 18.894 83.4546 19.3305C84.3931 19.7471 85.1818 20.3225 85.8207 21.0566C86.4796 21.7708 86.9788 22.5942 87.3183 23.5266C87.6777 24.4393 87.8574 25.3916 87.8574 26.3836C87.8574 26.6018 87.8374 26.8498 87.7975 27.1276C87.7775 27.3855 87.7476 27.6335 87.7076 27.8716H74.4693V25.4908H86.0903L84.7724 26.5622C84.9521 25.5305 84.8523 24.6079 84.4729 23.7945C84.0935 22.981 83.5345 22.3362 82.7957 21.8601C82.0569 21.3839 81.2183 21.1459 80.2798 21.1459C79.3413 21.1459 78.4827 21.3839 77.704 21.8601C76.9253 22.3362 76.3163 23.0207 75.877 23.9135C75.4577 24.7865 75.2879 25.8281 75.3678 27.0383C75.2879 28.2089 75.4677 29.2405 75.9069 30.1333C76.3662 31.0063 77.0051 31.6908 77.8238 32.1868C78.6624 32.6629 79.5709 32.901 80.5493 32.901C81.6276 32.901 82.5361 32.653 83.2749 32.157C84.0137 31.661 84.6127 31.0261 85.072 30.2524L87.4081 31.4428C87.0887 32.1769 86.5895 32.8514 85.9106 33.4664C85.2517 34.0616 84.4629 34.5378 83.5444 34.8949C82.6459 35.252 81.6376 35.4306 80.5194 35.4306Z" fill="white"/>
<path d="M52.4209 35.0715V12.9004H54.8769L67.6959 30.8158L66.5877 30.9349V12.9004H69.5529V35.0715H67.0969L54.3378 17.037L55.3561 16.918V35.0715H52.4209Z" fill="white"/>
</svg>
